<svg width="64" height="60" viewBox="0 0 64 60" fill="none" xmlns="http://www.w3.org/2000/svg">
<path d="M58.0441 54.7586C58.0441 57.4804 55.8376 59.6869 53.1158 59.6869C50.394 59.6869 48.1875 57.4804 48.1875 54.7586C48.1875 52.0368 50.394 49.8303 53.1158 49.8303C55.8376 49.8303 58.0441 52.0368 58.0441 54.7586Z" fill="#520000"/>
<path d="M27.3793 54.7586C27.3793 57.4804 25.1728 59.6869 22.451 59.6869C19.7292 59.6869 17.5227 57.4804 17.5227 54.7586C17.5227 52.0368 19.7292 49.8303 22.451 49.8303C25.1728 49.8303 27.3793 52.0368 27.3793 54.7586Z" fill="#520000"/>
<path fill-rule="evenodd" clip-rule="evenodd" d="M0 2.73793C0 1.22581 1.22581 0 2.73793 0H8.96389C10.7829 0 12.3514 1.27847 12.7182 3.06014L14.4557 11.4993H60.0593C62.4011 11.4993 64.1956 13.5808 63.8506 15.8971L61.0391 34.7741C60.3598 39.3353 56.4433 42.7117 51.8317 42.7117H22.8788C18.4611 42.7117 14.6519 39.6068 13.761 35.2799L7.62489 5.47586H2.73793C1.22581 5.47586 0 4.25005 0 2.73793ZM15.5831 16.9752L19.1244 34.1757C19.4912 35.9574 21.0597 37.2359 22.8788 37.2359H51.8317C53.7306 37.2359 55.3433 35.8456 55.623 33.9674L58.1537 16.9752H15.5831Z" fill="#520000"/>
</svg>
