<svg width="65" height="61" viewBox="0 0 65 61" fill="none" xmlns="http://www.w3.org/2000/svg">
<path d="M58.4951 55.6149C58.4951 58.3367 56.2886 60.5432 53.5668 60.5432C50.845 60.5432 48.6385 58.3367 48.6385 55.6149C48.6385 52.8931 50.845 50.6866 53.5668 50.6866C56.2886 50.6866 58.4951 52.8931 58.4951 55.6149Z" fill="white" fill-opacity="0.8"/>
<path d="M27.8303 55.6149C27.8303 58.3367 25.6238 60.5432 22.902 60.5432C20.1802 60.5432 17.9738 58.3367 17.9738 55.6149C17.9738 52.8931 20.1802 50.6866 22.902 50.6866C25.6238 50.6866 27.8303 52.8931 27.8303 55.6149Z" fill="white" fill-opacity="0.8"/>
<path fill-rule="evenodd" clip-rule="evenodd" d="M0.45105 3.59425C0.45105 2.08214 1.67686 0.856323 3.18898 0.856323H9.41494C11.234 0.856323 12.8025 2.1348 13.1693 3.91647L14.9068 12.3556H60.5103C62.8522 12.3556 64.6466 14.4371 64.3016 16.7534L61.4902 35.6304C60.8108 40.1917 56.8943 43.568 52.2828 43.568H23.3298C18.9122 43.568 15.1029 40.4632 14.2121 36.1363L8.07594 6.33219H3.18898C1.67686 6.33219 0.45105 5.10637 0.45105 3.59425ZM16.0342 17.8315L19.5754 35.032C19.9423 36.8137 21.5108 38.0922 23.3298 38.0922H52.2828C54.1816 38.0922 55.7943 36.7019 56.074 34.8237L58.6048 17.8315H16.0342Z" fill="white" fill-opacity="0.8"/>
</svg>
