<svg width="67" height="67" viewBox="0 0 67 67" fill="none" xmlns="http://www.w3.org/2000/svg">
<path fill-rule="evenodd" clip-rule="evenodd" d="M0.903564 33.426C0.903564 15.2806 15.6133 0.570831 33.7587 0.570831C51.9041 0.570831 66.6139 15.2806 66.6139 33.426C66.6139 51.5714 51.9041 66.2812 33.7587 66.2812C15.6133 66.2812 0.903564 51.5714 0.903564 33.426ZM33.7587 6.04669C18.6376 6.04669 6.37943 18.3048 6.37943 33.426C6.37943 48.5472 18.6376 60.8053 33.7587 60.8053C48.8799 60.8053 61.138 48.5472 61.138 33.426C61.138 18.3048 48.8799 6.04669 33.7587 6.04669Z" fill="white" fill-opacity="0.8"/>
<path fill-rule="evenodd" clip-rule="evenodd" d="M12.9504 57.7024C12.9504 49.7385 19.4064 43.2826 27.3702 43.2826H41.2424C49.2062 43.2826 55.6622 49.7385 55.6622 57.7024H50.1863C50.1863 52.7628 46.182 48.7585 41.2424 48.7585H27.3702C22.4306 48.7585 18.4263 52.7628 18.4263 57.7024H12.9504Z" fill="white" fill-opacity="0.8"/>
<path fill-rule="evenodd" clip-rule="evenodd" d="M34.3064 16.9985C29.77 16.9985 26.0926 20.6759 26.0926 25.2123C26.0926 29.7486 29.77 33.4261 34.3064 33.4261C38.8427 33.4261 42.5201 29.7486 42.5201 25.2123C42.5201 20.6759 38.8427 16.9985 34.3064 16.9985ZM20.6167 25.2123C20.6167 17.6517 26.7458 11.5226 34.3064 11.5226C41.8669 11.5226 47.996 17.6517 47.996 25.2123C47.996 32.7729 41.8669 38.9019 34.3064 38.9019C26.7458 38.9019 20.6167 32.7729 20.6167 25.2123Z" fill="white" fill-opacity="0.8"/>
</svg>
