<svg width="66" height="66" viewBox="0 0 66 66" fill="none" xmlns="http://www.w3.org/2000/svg">
<path fill-rule="evenodd" clip-rule="evenodd" d="M0 32.8552C0 14.7098 14.7098 0 32.8552 0C51.0006 0 65.7103 14.7098 65.7103 32.8552C65.7103 51.0006 51.0006 65.7103 32.8552 65.7103C14.7098 65.7103 0 51.0006 0 32.8552ZM32.8552 5.47586C17.734 5.47586 5.47586 17.734 5.47586 32.8552C5.47586 47.9763 17.734 60.2345 32.8552 60.2345C47.9763 60.2345 60.2345 47.9763 60.2345 32.8552C60.2345 17.734 47.9763 5.47586 32.8552 5.47586Z" fill="#520000"/>
<path fill-rule="evenodd" clip-rule="evenodd" d="M12.0469 57.1315C12.0469 49.1677 18.5028 42.7118 26.4666 42.7118H40.3388C48.3026 42.7118 54.7586 49.1677 54.7586 57.1315H49.2827C49.2827 52.1919 45.2784 48.1876 40.3388 48.1876H26.4666C21.5271 48.1876 17.5227 52.1919 17.5227 57.1315H12.0469Z" fill="#520000"/>
<path fill-rule="evenodd" clip-rule="evenodd" d="M33.4028 16.4276C28.8664 16.4276 25.189 20.1051 25.189 24.6414C25.189 29.1778 28.8664 32.8552 33.4028 32.8552C37.9391 32.8552 41.6166 29.1778 41.6166 24.6414C41.6166 20.1051 37.9391 16.4276 33.4028 16.4276ZM19.7131 24.6414C19.7131 17.0808 25.8422 10.9518 33.4028 10.9518C40.9634 10.9518 47.0924 17.0808 47.0924 24.6414C47.0924 32.202 40.9634 38.3311 33.4028 38.3311C25.8422 38.3311 19.7131 32.202 19.7131 24.6414Z" fill="#520000"/>
</svg>
